<svg width="980" height="776" viewBox="0 0 980 776" fill="none" xmlns="http://www.w3.org/2000/svg">
<path opacity="0.79" d="M759.162 84.0696C759.162 84.0696 552.716 19.6202 449.021 63.9393C345.325 108.258 248.628 13.5788 138.88 102.205C29.1312 190.832 156.001 265.347 41.191 372.086C-73.6189 478.825 60.3298 748.717 334.246 594.604C531.629 510.012 426.896 777.921 674.628 730.558C922.361 683.196 732.621 394.211 853.876 347.886C975.131 301.56 990.776 154.572 759.162 84.0696Z" fill="#FF8D8D"/>
<path d="M163.749 1H783.835V473.81H163.749L163.749 1Z" fill="#F964B2"/>
<path opacity="0.47" d="M783.835 473.798V1H729.37C729.728 12.3795 733.579 23.6553 747.46 23.6553C775.523 23.6553 739.516 377.608 753.617 423.449C767.717 469.29 281.822 460.712 163.749 449.632V473.844L783.835 473.798Z" fill="#F41E84"/>
<path fill-rule="evenodd" clip-rule="evenodd" d="M163.749 1H783.835V473.81H163.749L163.749 1Z" stroke="#141414" stroke-width="1.31" stroke-linecap="round"/>
<path d="M163.749 494.044H328.989V546.099H163.749V494.044Z" fill="#F9DF8C" stroke="#141414" stroke-width="1.31" stroke-linecap="round"/>
<path d="M732.299 58.1973H979.951V290.065H732.299V58.1973Z" fill="#141414"/>
<path d="M163.749 1H783.835V23.6553H163.749L163.749 1Z" fill="white" stroke="#141414" stroke-width="1.31" stroke-linecap="round"/>
<path d="M716.688 40.0732H964.339V271.941H716.688L716.688 40.0732Z" fill="#F41E84"/>
<path opacity="0.38" d="M964.339 40.0732H883.426C883.426 40.0732 888.476 65.1958 919.997 61.7947C951.519 58.3935 951.127 95.9332 934.697 146.144C918.268 196.354 959.059 255.777 880.002 258.798C800.944 261.818 719.535 253.886 716.688 271.941H964.339V40.0732Z" fill="#890952"/>
<path fill-rule="evenodd" clip-rule="evenodd" d="M716.688 40.0732H964.339V271.941H716.688L716.688 40.0732Z" stroke="#141414" stroke-width="1.31" stroke-linecap="round"/>
<path d="M716.688 40.0732H964.339V61.7947H716.688L716.688 40.0732Z" fill="white" stroke="#141414" stroke-width="1.31" stroke-linecap="round"/>
<path opacity="0.47" d="M208.067 82.7666H593.922V420.428H208.067L208.067 82.7666Z" fill="#F41E84"/>
<path opacity="0.39" d="M927.076 61.7947H964.339V40.0732H883.426C883.426 40.0732 887.265 59.1198 909.079 61.7947H919.997C922.349 61.5298 924.724 61.5298 927.076 61.7947V61.7947Z" fill="#81D9FC"/>
<path fill-rule="evenodd" clip-rule="evenodd" d="M716.688 40.0732H964.339V61.7947H716.688L716.688 40.0732Z" stroke="#141414"/>
<path d="M196.365 68.5396H582.22V406.201H196.365V68.5396Z" fill="white" stroke="#141414"/>
<path d="M622.815 469.786C622.815 469.786 624.337 451.754 629.664 469.083C634.818 485.858 638.622 527.421 637.216 533.371C635.809 539.32 611.159 516.192 611.159 516.468C611.159 516.745 622.815 469.786 622.815 469.786V469.786Z" fill="#141414" stroke="#141414"/>
<path d="M278.8 125.091H591.673" stroke="#141414"/>
<path d="M210.315 149.683H591.674" stroke="#141414"/>
<path d="M210.315 174.287H591.674" stroke="#141414"/>
<path d="M210.315 198.879H591.674" stroke="#141414"/>
<path d="M210.315 223.483H591.674" stroke="#141414"/>
<path d="M210.315 248.075H591.674" stroke="#141414"/>
<path d="M210.315 272.668H356.97" stroke="#141414"/>
<path d="M375.797 272.668H400.977" stroke="#141414"/>
<path d="M724.769 54.8655C726.941 54.8655 728.701 53.1053 728.701 50.934C728.701 48.7626 726.941 47.0024 724.769 47.0024C722.598 47.0024 720.838 48.7626 720.838 50.934C720.838 53.1053 722.598 54.8655 724.769 54.8655Z" fill="#5CC9FF" stroke="#141414"/>
<path d="M747.459 54.8655C749.63 54.8655 751.39 53.1053 751.39 50.934C751.39 48.7626 749.63 47.0024 747.459 47.0024C745.288 47.0024 743.527 48.7626 743.527 50.934C743.527 53.1053 745.288 54.8655 747.459 54.8655Z" fill="#5CC9FF" stroke="#141414"/>
<path d="M770.161 54.8655C772.332 54.8655 774.093 53.1053 774.093 50.934C774.093 48.7626 772.332 47.0024 770.161 47.0024C767.99 47.0024 766.229 48.7626 766.229 50.934C766.229 53.1053 767.99 54.8655 770.161 54.8655Z" fill="#5CC9FF" stroke="#141414"/>
<path d="M242.553 435.532H753.617" stroke="white"/>
<path d="M251.153 48.7781H506.68" stroke="white"/>
<path d="M194.602 446.612H753.617" stroke="white"/>
<path opacity="0.53" d="M210.316 306.126H348.785V381.378H210.316V306.126Z" fill="#F9DF8C"/>
<path opacity="0.53" d="M210.316 91.8633H246.357V108.42H210.316V91.8633Z" fill="#81D9FC"/>
<path fill-rule="evenodd" clip-rule="evenodd" d="M204.978 298.274H343.446V373.527H204.978V298.274Z" stroke="#141414" stroke-width="1.31" stroke-linecap="round"/>
<path fill-rule="evenodd" clip-rule="evenodd" d="M360.222 298.274H498.69V373.527H360.222V298.274Z" stroke="#141414" stroke-width="1.31" stroke-linecap="round"/>
<path opacity="0.53" d="M366.009 306.126H504.477V381.378H366.009V306.126Z" fill="#F9DF8C"/>
<path d="M194.602 457.692H753.617" stroke="white" stroke-width="1.31" stroke-linecap="round"/>
<path d="M622.619 501.238C620.636 482.238 624.083 466.431 624.706 461.715C587.178 470.939 558.539 462.476 537.44 448.491C551.206 402.685 598.811 329.611 595.006 319.719C589.98 306.633 509.412 268.771 475.677 291.23C475.677 291.23 413.245 365.537 411.735 450.128C410.916 495.715 438.045 528.275 487.483 541.764C524.55 551.875 574.138 551.276 633.907 537.394C627.645 526.269 623.799 513.95 622.619 501.238V501.238Z" fill="#C10865"/>
<path opacity="0.56" d="M624.706 461.715C587.177 470.939 558.538 462.476 537.44 448.491C539.832 440.801 542.638 433.246 545.845 425.859C530.499 425.501 517.805 425.594 512.144 425.455C491.207 424.959 549.949 321.483 539.33 297.271C537.437 293.103 534.185 289.701 530.107 287.621C509.688 282.906 489.028 282.352 475.688 291.23C475.688 291.23 474.893 292.164 473.497 293.951C474.143 301.283 499.923 312.398 483.493 330.291C466.372 348.923 424.325 443.084 456.549 481.096C488.774 519.109 587.466 477.326 595.018 505.308C602.569 533.29 633.941 537.429 633.941 537.429C627.671 526.306 623.817 513.986 622.63 501.273C620.636 482.238 624.083 466.431 624.706 461.715Z" fill="#7C034B"/>
<path fill-rule="evenodd" clip-rule="evenodd" d="M622.619 501.238C620.636 482.238 624.083 466.431 624.706 461.715C587.178 470.939 558.539 462.476 537.44 448.491C551.206 402.685 598.811 329.611 595.006 319.719C589.98 306.633 509.412 268.771 475.677 291.23C475.677 291.23 413.245 365.537 411.735 450.128C410.916 495.715 438.045 528.275 487.483 541.764C524.55 551.875 574.138 551.276 633.907 537.394C627.645 526.269 623.799 513.95 622.619 501.238V501.238Z" stroke="#141414" stroke-width="1.31" stroke-linecap="round"/>
<path d="M437.065 85.7299C437.065 85.7299 441.907 80.0805 448.917 89.9035C455.443 99.0464 462.695 99.1271 461.415 102.909C460.135 106.69 438.241 105.883 435.128 98.8965C432.015 91.9097 437.065 85.7299 437.065 85.7299V85.7299Z" fill="#141414" stroke="#141414" stroke-width="1.31" stroke-linecap="round"/>
<path d="M476.68 152.427C465.151 155.46 457.08 152.67 454.025 145.994C450.97 139.319 452.872 128.954 461.312 116.583C462.188 115.43 463.018 114.415 463.836 113.435C448.779 109.746 442.772 102.471 439.625 94.9879C438.466 92.0686 437.514 89.0712 436.777 86.0181C400.332 119.569 393.104 146.916 393.104 146.916C386.636 167.047 389.645 188.872 407.227 202.984C410.409 199.629 435.428 199.859 443.994 192.458C456.976 181.251 456.515 161.005 476.68 152.427Z" fill="#F9DF8C"/>
<path opacity="0.52" d="M442.679 111.832C449.47 125.241 408.356 195.282 432.522 190.463C439.501 182.686 447.042 175.434 455.085 168.764C460.026 164.455 464.177 159.316 467.352 153.58C460.792 153.407 456.157 150.64 454.036 145.948C451.027 139.33 452.883 128.907 461.322 116.536C462.199 115.383 463.029 114.369 463.847 113.389C448.79 109.699 442.783 102.424 439.636 94.9416C438.477 92.0222 437.525 89.0248 436.788 85.9717C436.569 94.9478 438.594 103.836 442.679 111.832V111.832Z" fill="#F9B121"/>
<path d="M476.68 152.427C465.151 155.46 457.08 152.67 454.025 145.994C450.97 139.319 452.872 128.954 461.312 116.583C462.188 115.43 463.018 114.415 463.836 113.435C448.779 109.746 442.772 102.471 439.625 94.9879C438.466 92.0686 437.514 89.0712 436.777 86.0181C400.332 119.569 393.104 146.916 393.104 146.916C386.636 167.047 389.645 188.872 407.227 202.984" stroke="#141414" stroke-width="1.31" stroke-linecap="round"/>
<path d="M724.239 50.1501C726.442 56.5162 726.022 63.4971 723.072 69.5531C720.122 75.6092 714.884 80.243 708.513 82.4324L368.395 199.629L352.589 178.323L351.862 151.655L691.98 34.4586C698.339 32.2611 705.31 32.6799 711.36 35.6227C717.41 38.5654 722.043 43.7912 724.239 50.1501Z" fill="#F73737"/>
<path opacity="0.74" d="M708.513 82.4094C718.053 79.1127 724.731 70.4731 725.517 60.4099C726.302 50.3467 721.046 40.7754 712.133 36.0381C716.584 44.5237 721.991 58.1515 715.661 65.5073C706.034 76.7139 675.908 54.22 677.384 69.531C678.859 84.8421 543.988 98.147 494.343 131.894C444.697 165.64 411.331 154.065 367.116 179.614C363.956 181.6 360.544 183.151 356.97 184.226L368.372 199.594L708.513 82.4094Z" fill="#CC2323"/>
<path fill-rule="evenodd" clip-rule="evenodd" d="M724.239 50.1501C726.442 56.5162 726.022 63.4971 723.072 69.5531C720.122 75.6092 714.884 80.243 708.513 82.4324L368.395 199.629L352.589 178.323L351.862 151.655L691.98 34.4586C698.339 32.2611 705.31 32.6799 711.36 35.6227C717.41 38.5654 722.043 43.7912 724.239 50.1501Z" stroke="#141414" stroke-width="1.31"/>
<path d="M676.566 66.5793C678.769 72.9453 678.349 79.9262 675.399 85.9823C672.448 92.0384 667.21 96.6721 660.84 98.8616L368.373 199.606L352.566 178.299L351.84 151.632L644.318 50.8647C650.678 48.6719 657.649 49.0957 663.697 52.0428C669.744 54.9899 674.374 60.2188 676.566 66.5793V66.5793Z" fill="#F9B121"/>
<path opacity="0.74" d="M660.839 98.8273C672.943 94.6485 680.035 82.1028 677.372 69.5771C678.525 84.8651 546.156 99.2077 496.568 132.92C446.98 166.632 403.929 151.009 367.116 179.614C364.061 181.789 360.617 183.354 356.97 184.226L368.372 199.594L660.839 98.8273Z" fill="#F47119"/>
<path opacity="0.47" d="M620.798 302.31H710.508V420.428H620.798V302.31Z" fill="#F41E84"/>
<path fill-rule="evenodd" clip-rule="evenodd" d="M676.566 66.5793C678.769 72.9453 678.349 79.9262 675.399 85.9823C672.448 92.0384 667.21 96.6721 660.84 98.8616L368.373 199.606L352.566 178.299L351.84 151.632L644.318 50.8647C650.678 48.6719 657.649 49.0957 663.697 52.0428C669.744 54.9899 674.374 60.2188 676.566 66.5793V66.5793Z" stroke="#141414" stroke-width="1.31"/>
<path d="M368.685 186.139L677.95 77.6592Z" fill="white"/>
<path d="M368.685 186.139L677.95 77.6592" stroke="#141414" stroke-width="1.31" stroke-linecap="round"/>
<path d="M463.848 113.4C479.505 94.5036 484.855 102.482 485.304 107.866C485.777 113.527 492.222 112.478 488.763 100.499C492.879 108.996 494.389 112.686 495.9 107.866C496.949 104.534 495.415 101.018 494.366 99.173C493.859 98.3775 493.548 97.8587 493.548 97.8587C493.842 98.2828 494.116 98.7214 494.366 99.173C496.338 102.217 501.18 109.354 501.849 106.736C502.633 103.427 499.174 95.4952 499.174 95.4952C499.174 95.4952 505.031 105.41 506.161 104.085C507.291 102.759 503.325 93.0394 503.325 93.0394C503.325 93.0394 514.278 94.6535 513.701 90.7335C513.24 87.4937 482.998 68.8276 439.602 94.9763C442.784 102.436 448.791 109.769 463.848 113.4V113.4Z" fill="#81D9FC" stroke="#141414" stroke-width="1.31"/>
<path d="M612.14 291.23H701.85V409.349H612.14V291.23Z" fill="#81D9FC" stroke="#141414" stroke-width="1.31" stroke-linecap="round"/>
<path opacity="0.34" d="M728.193 240.708H872.576V255.443H728.193V240.708Z" fill="white"/>
<path opacity="0.34" d="M890.735 240.708H949.236V255.443H890.735V240.708Z" fill="white"/>
<path opacity="0.34" d="M612.139 108.546H701.849V273.878H612.139V108.546Z" fill="white"/>
<path d="M407.192 202.984C426.988 218.906 465.278 225.005 529.22 207.688C581.413 173.445 569.838 116.548 569.838 116.548C569.838 116.548 521.495 114.38 452.953 170.459C452.895 177.734 444.709 184.398 444.709 184.398L407.192 202.984Z" fill="#F9DF8C"/>
<path opacity="0.52" d="M407.192 202.984C407.891 202.418 408.712 202.023 409.591 201.831L407.192 202.984C426.988 218.906 465.278 225.005 529.22 207.688C553.431 191.789 563.946 170.99 568.224 153.28C561.087 143.457 548.301 139.445 544.911 142.477C544.911 142.477 533.751 131.363 496.568 181.251C471.4 215.032 432.165 221.811 407.538 203.26" fill="#F9B121"/>
<path d="M357.316 174.287L675.148 63.2705Z" fill="white"/>
<path d="M357.316 174.287L675.148 63.2705" stroke="#141414" stroke-width="1.31" stroke-linecap="round"/>
<path d="M544.138 489.409C551.194 442.577 624.694 368.604 624.694 368.604C624.694 328.355 536.333 287.01 536.333 287.01C536.333 287.01 462.821 368.788 447.821 455.651C447.815 455.697 447.815 455.743 447.821 455.789C438.068 506.127 449.493 565.434 480.726 647.512C495.16 646.07 509.24 642.17 522.359 635.982C538.673 628.283 553.027 616.981 564.338 602.928C559.46 590.826 555.321 578.44 551.944 565.838C544.265 537.164 541.164 509.297 544.138 489.409V489.409Z" fill="#F41E84"/>
<path opacity="0.49" d="M544.139 489.409C551.195 442.576 624.695 368.604 624.695 368.604C624.695 367.981 624.671 367.358 624.625 366.736C624.625 366.517 624.625 366.298 624.568 366.079C624.568 365.675 624.499 365.272 624.441 364.868C624.383 364.465 624.36 364.372 624.326 364.119C624.291 363.865 624.21 363.369 624.141 362.966C624.072 362.562 624.014 362.424 623.957 362.159C623.899 361.894 623.807 361.455 623.715 361.098C623.622 360.741 623.565 360.545 623.484 360.268C623.403 359.991 623.288 359.576 623.184 359.242C623.08 358.907 622.988 358.665 622.896 358.377C622.804 358.089 622.677 357.708 622.55 357.374L622.204 356.498C622.077 356.175 621.951 355.852 621.812 355.529C621.674 355.206 621.547 354.93 621.409 354.63L620.971 353.673C620.821 353.373 620.671 353.074 620.509 352.774C620.348 352.474 620.198 352.14 620.037 351.828L619.529 350.906C619.356 350.606 619.195 350.306 619.011 349.995C618.826 349.684 618.642 349.373 618.446 349.061L617.904 348.174C617.708 347.862 617.489 347.539 617.281 347.228L616.705 346.352C616.497 346.041 616.267 345.718 616.047 345.406C615.828 345.095 615.644 344.83 615.436 344.553L614.722 343.585L614.087 342.755L613.327 341.775L612.669 340.968L611.851 339.988L611.194 339.204C610.905 338.869 610.617 338.535 610.317 338.212L609.649 337.451L608.715 336.437L608.046 335.71L607.055 334.684L606.386 333.992L605.348 332.943L604.691 332.298L603.538 331.225L602.881 330.614L601.728 329.53L601.094 328.942L599.883 327.847L599.272 327.305L597.981 326.152L597.416 325.68L596.055 324.527L595.525 324.089L594.107 322.936L593.611 322.544L592.124 321.391L591.686 321.045L590.118 319.811C589.99 319.722 589.867 319.625 589.749 319.523L588.089 318.266L587.8 318.047L586.048 316.744L585.852 316.594C585.241 316.145 584.63 315.695 584.007 315.257L583.892 315.176L581.955 313.781C561.433 301.975 541.072 293.882 529.15 295.45C528.655 296.038 528.147 296.672 527.617 297.329L527.467 297.513L525.749 299.646C537.544 307.129 580.998 336.621 588.169 369.365C596.471 407.319 535.03 415.252 517.413 463.594C504.604 498.725 515.107 569.976 547.205 620.187C550.722 617.306 554.071 614.226 557.236 610.963C557.916 610.26 558.55 609.58 559.173 608.911L559.288 608.773C559.876 608.15 560.441 607.528 560.948 606.928L561.144 606.709C561.64 606.144 562.09 605.556 562.539 605.083C562.62 604.968 562.724 604.864 562.805 604.761C563.312 604.15 563.796 603.608 564.246 602.985C559.368 590.884 555.229 578.498 551.852 565.895C544.265 537.164 541.164 509.297 544.139 489.409V489.409Z" fill="#C10865"/>
<path fill-rule="evenodd" clip-rule="evenodd" d="M544.138 489.409C551.194 442.577 624.694 368.604 624.694 368.604C624.694 328.355 536.333 287.01 536.333 287.01C536.333 287.01 462.821 368.788 447.821 455.651C447.815 455.697 447.815 455.743 447.821 455.789C438.068 506.127 449.493 565.434 480.726 647.512C495.16 646.07 509.24 642.17 522.359 635.982C538.673 628.283 553.027 616.981 564.338 602.928C559.46 590.826 555.321 578.44 551.944 565.838C544.265 537.164 541.164 509.297 544.138 489.409V489.409Z" stroke="#141414" stroke-width="1.31" stroke-linecap="round"/>
<path d="M407.192 202.984C426.988 218.906 465.278 225.005 529.22 207.688C581.413 173.445 569.838 116.548 569.838 116.548C569.838 116.548 521.495 114.38 452.953 170.459C452.953 170.459 434.967 185.067 432.476 190.463" stroke="#141414" stroke-width="1.31" stroke-linecap="round"/>
<path d="M531.571 146.144C531.571 146.144 531.813 200.39 484.992 269.37C506.137 272.137 593.242 304.869 636.027 356.994C652.388 346.421 684.866 246.219 652.169 161.882C636.811 126.636 588.699 113.204 569.849 116.56" fill="#F9DF8C"/>
<path opacity="0.52" d="M664.632 213.706C663.563 212.968 662.236 212.705 660.966 212.98C669.532 236.892 654.924 335.584 635.29 317.655C602.258 277.475 507.728 269.036 486.157 267.606C485.765 268.194 485.396 268.759 485.004 269.37C506.149 272.137 593.254 304.869 636.039 356.994C649.125 348.531 672.495 282.813 664.632 213.706Z" fill="#F9B121"/>
<path d="M531.571 146.144C531.571 146.144 531.813 200.39 484.992 269.37C506.137 272.137 593.242 304.869 636.027 356.994C652.388 346.421 684.866 246.219 652.169 161.882C636.811 126.636 588.699 113.204 569.849 116.56" stroke="#141414" stroke-width="1.31" stroke-linecap="round"/>
<path d="M480.427 293.086C480.427 293.086 461.807 296.118 463.052 280.496C464.343 264.124 494.308 252.295 579.395 296.107C664.482 339.918 652.665 371.382 628.741 369.618C604.818 367.854 572.604 290.019 480.427 293.086Z" fill="#F9DF8C"/>
<path opacity="0.52" d="M643.464 346.467C643.464 346.467 630.782 367.301 604.829 336.333C578.876 305.365 505.03 272.61 471.976 292.775C474.758 293.336 477.615 293.425 480.427 293.04C572.604 290.019 604.829 367.808 628.741 369.572C641.712 370.529 651.12 361.709 643.464 346.467V346.467Z" fill="#F9B121"/>
<path fill-rule="evenodd" clip-rule="evenodd" d="M480.427 293.086C480.427 293.086 461.807 296.119 463.052 280.496C464.343 264.125 494.308 252.295 579.395 296.107C664.482 339.919 652.665 371.383 628.741 369.619C604.818 367.855 572.604 290.02 480.427 293.086Z" stroke="#141414" stroke-width="1.31"/>
<path d="M522.82 267.802C522.82 267.802 525.334 288.382 536.102 287.621C546.871 286.86 556.625 264.205 541.925 257.414C527.225 250.623 522.82 267.802 522.82 267.802Z" fill="#141414" stroke="#141414" stroke-width="1.31" stroke-linecap="round"/>
<path d="M532.782 240.212C506.829 246.542 496.222 256.354 494.654 257.218C492.348 258.544 496.072 261.83 502.955 260.815C496.545 266.857 491.633 278.651 493.328 280.923C495.023 283.194 501.917 273.371 501.917 273.371C501.917 273.371 494.181 287.621 496.441 289.512C498.701 291.403 506.644 275.919 506.644 275.919C506.644 275.919 500.223 290.642 504.569 291.207C508.916 291.772 511.176 277.522 511.176 277.522C511.176 277.522 511.176 291.23 514.577 291.23C521.932 291.23 508.812 269.751 539.999 277.303L541.152 277.51C544.265 264.263 537.555 248.929 532.782 240.212Z" fill="#81D9FC" stroke="#141414" stroke-width="1.31" stroke-linecap="round"/>
<path d="M611.125 187.016C623.957 198.337 635.798 233.583 576.882 234.84C569.492 235.001 562.69 235.451 556.452 236.119C548.481 236.947 540.574 238.303 532.782 240.178C537.555 248.894 544.312 264.274 541.106 277.475C540.248 281.189 538.534 284.651 536.103 287.587C546.479 291.61 643.326 285.996 664.079 276.138C696.154 265.519 715.097 243.21 703.279 203.664C663.053 92.4052 581.609 111.832 581.609 111.832" fill="#F9DF8C"/>
<path opacity="0.52" d="M703.337 203.687C676.346 129.103 630.851 113.227 603.792 110.921C594.315 125.356 586.624 160.233 591.674 157.742C591.674 157.742 608.357 158.123 611.124 134.464C613.891 110.806 663.491 148.807 686.146 186.347C708.802 223.887 669.025 246.519 642.335 247.026C615.644 247.533 641.574 268.482 601.543 272.725C561.513 276.968 544.761 250.289 536.898 248.779C540.495 257.276 543.401 267.998 541.106 277.602C540.248 281.316 538.534 284.778 536.103 287.713C546.479 291.737 643.326 286.122 664.079 276.265C696.188 265.542 715.131 243.233 703.337 203.687V203.687Z" fill="#F9B121"/>
<path d="M611.125 187.016C623.957 198.337 635.798 233.583 576.882 234.84C569.492 235.001 562.69 235.451 556.452 236.119C548.481 236.947 540.574 238.303 532.782 240.178C537.555 248.894 544.312 264.274 541.106 277.475C540.248 281.189 538.534 284.651 536.103 287.587C546.479 291.61 643.326 285.996 664.079 276.138C696.154 265.519 715.097 243.21 703.279 203.664C663.053 92.4052 581.609 111.832 581.609 111.832" stroke="#141414" stroke-width="1.31" stroke-linecap="round"/>
<path d="M364.349 157.443L664.056 52.2251Z" fill="white"/>
<path d="M364.349 157.443L664.056 52.2251" stroke="#141414" stroke-width="1.31" stroke-linecap="round"/>
<path d="M572.536 158.284C572.536 158.284 539.493 134.487 573.389 101.536C596.828 78.7542 633.238 101.732 625.271 115.372C616.048 113.389 604.98 115.937 604.795 127.27C604.611 138.603 602.247 156.255 589.311 158.33" fill="#F9DF8C"/>
<path d="M380.709 147.873C380.709 147.873 375.543 148.542 375.797 154.791C376.051 161.04 394.094 148.577 396.354 154.318C398.614 160.06 416.75 154.814 412.979 143.446C409.209 132.078 380.709 147.873 380.709 147.873Z" fill="white"/>
<path d="M426.274 138.327C426.274 138.327 417.189 139.203 418.203 146.04C419.218 152.877 441.124 138.373 426.274 138.327Z" fill="white"/>
<path opacity="0.52" d="M567.313 111.233C567.313 111.233 609.372 88.174 626.113 113.377C629.872 99.6918 595.756 79.8151 573.401 101.537C569.87 104.905 566.74 108.669 564.073 112.755C565.181 112.309 566.263 111.801 567.313 111.233V111.233Z" fill="#F9B121"/>
<path d="M572.536 158.285C572.536 158.285 539.493 134.488 573.389 101.537C596.828 78.7547 633.238 101.733 625.271 115.372C616.048 113.389 604.98 115.937 604.795 127.27C604.611 138.604 602.247 156.255 589.311 158.331" stroke="#141414" stroke-width="1.31" stroke-linecap="round"/>
<path d="M554.734 74.7654C554.734 74.7654 543.655 124.1 569.838 116.548C570.587 138.2 570.587 149.534 586.198 145.256C601.809 140.979 585.691 84.3233 574.669 71.468C563.647 58.6127 554.515 69.7271 554.734 74.7654Z" fill="#81D9FC" stroke="#141414" stroke-width="1.31"/>
<path d="M578.012 83.32C578.012 83.32 575.279 83.5045 576.133 92.1054C576.986 100.706 571.786 84.9572 573.204 78.2701C574.622 71.5831 545.914 88.3699 535.065 78.2701C524.216 68.1703 529.485 48.1553 542.617 49.4466C555.749 50.7379 561.121 59.6501 564.891 52.5595C568.662 45.4689 590.671 48.2245 591.617 62.1059C592.562 75.9873 583.304 79.9419 588.965 82.9626C594.626 85.9833 587.95 95.9332 583.581 92.4743C579.211 89.0155 580.664 83.1355 578.012 83.32V83.32Z" fill="#DB2323" stroke="#141414" stroke-width="1.31"/>
<path d="M599.988 55.7533C604.578 55.7533 608.3 52.0316 608.3 47.4406C608.3 42.8497 604.578 39.1279 599.988 39.1279C595.397 39.1279 591.675 42.8497 591.675 47.4406C591.675 52.0316 595.397 55.7533 599.988 55.7533Z" fill="#DB2323" stroke="#141414" stroke-width="1.31"/>
<path d="M494.343 99.1732C494.093 98.7216 493.819 98.283 493.525 97.8589C493.525 97.8589 493.836 98.3777 494.343 99.1732V99.1732Z" fill="white" stroke="#141414" stroke-width="1.31"/>
<path d="M592.562 654.902C581.644 640.156 572.086 622.09 564.338 602.951C553.027 617.004 538.673 628.306 522.359 636.006C543.285 654.453 562.712 666.616 572.155 675.067C581.328 671.266 588.652 664.029 592.562 654.902V654.902Z" fill="#81D9FC"/>
<path fill-rule="evenodd" clip-rule="evenodd" d="M592.562 654.902C581.644 640.156 572.086 622.09 564.338 602.951C553.027 617.004 538.673 628.306 522.359 636.006C543.285 654.453 562.712 666.616 572.155 675.067C581.328 671.266 588.652 664.029 592.562 654.902V654.902Z" stroke="#141414" stroke-width="1.31" stroke-linecap="round"/>
<path d="M575.372 678.226C592.493 697.365 572.351 742.676 573.862 746.711C575.372 750.746 607.089 688.799 604.576 669.164C600.255 664.686 596.241 659.921 592.562 654.902C588.652 664.029 581.328 671.266 572.155 675.067C573.283 676.063 574.356 677.117 575.372 678.226V678.226Z" fill="#141414" stroke="#141414" stroke-width="1.31" stroke-linecap="round"/>
<path d="M656.988 501.768C648.387 501.861 636.12 501.826 622.619 501.227C623.806 513.94 627.66 526.26 633.929 537.383C642.404 535.411 651.085 533.198 659.963 530.684C663.364 519.581 659.502 507.706 656.988 501.768V501.768Z" fill="#81D9FC" stroke="#141414" stroke-width="1.31" stroke-linecap="round"/>
<path d="M702.264 571.487C703.198 561.791 672.426 501.238 672.426 501.238C672.426 501.238 664.748 501.688 656.988 501.78C659.502 507.706 663.364 519.582 659.963 530.696C684.636 548.82 701.492 579.408 702.264 571.487V571.487Z" fill="#141414" stroke="#141414" stroke-width="1.31" stroke-linecap="round"/>
<path d="M362.101 178.299C348.98 176.408 367.197 163.761 363.992 155.921C360.786 148.081 351.978 152.024 351.194 151.862L311.095 183.868C314.496 186.635 319.869 192.284 318.07 199.375L367.739 199.871C382.243 192.273 375.221 180.178 362.101 178.299V178.299Z" fill="#B5F4EF"/>
<path opacity="0.51" d="M315.626 188.618C318.027 191.649 318.925 195.604 318.07 199.375L367.739 199.871C380.248 193.322 376.743 183.43 367.116 179.614C349.419 190.59 336.978 182.98 315.626 188.618H315.626Z" fill="#1CA4E8"/>
<path fill-rule="evenodd" clip-rule="evenodd" d="M362.101 178.299C348.98 176.408 367.197 163.761 363.992 155.921C360.786 148.081 351.978 152.024 351.194 151.862L311.095 183.868C314.496 186.635 319.869 192.284 318.07 199.375L367.739 199.871C382.243 192.273 375.221 180.178 362.101 178.299V178.299Z" stroke="#141414"/>
<path d="M311.094 183.868L291.979 199.121L318.07 199.375C319.868 192.284 314.495 186.635 311.094 183.868Z" fill="#141414" stroke="#141414"/>
<path d="M674.628 553.339C674.628 553.339 665.739 560.534 669.67 565.019C673.602 569.504 674.628 553.339 674.628 553.339Z" fill="white" stroke="white"/>
<path d="M670.408 549.177C670.408 549.177 659.248 546.733 658.199 552.636C657.15 558.539 670.408 549.177 670.408 549.177Z" fill="white" stroke="white"/>
<path d="M571.463 699.982C571.463 699.982 560.083 701.135 560.913 707.049C561.744 712.964 571.463 699.982 571.463 699.982Z" fill="white" stroke="white"/>
<path d="M570.206 694.194C570.206 694.194 562.204 686.031 558.112 690.378C554.019 694.724 570.206 694.194 570.206 694.194Z" fill="white" stroke="white"/>
<path d="M569.838 116.548C569.838 116.548 578.208 114.415 579.719 111.648C581.229 108.881 581.471 120.963 570.092 123.661C569.988 120.641 569.838 116.548 569.838 116.548H569.838Z" fill="#141414" stroke="#141414"/>
<path d="M189.875 18.5015C192.485 18.5015 194.602 16.3851 194.602 13.7744C194.602 11.1637 192.485 9.04736 189.875 9.04736C187.264 9.04736 185.147 11.1637 185.147 13.7744C185.147 16.3851 187.264 18.5015 189.875 18.5015Z" fill="#5CC9FF" stroke="#141414" stroke-linecap="round"/>
<path d="M217.176 18.5015C219.787 18.5015 221.903 16.3851 221.903 13.7744C221.903 11.1637 219.787 9.04736 217.176 9.04736C214.566 9.04736 212.449 11.1637 212.449 13.7744C212.449 16.3851 214.566 18.5015 217.176 18.5015Z" fill="#5CC9FF" stroke="#141414" stroke-linecap="round"/>
<path d="M244.478 18.5015C247.089 18.5015 249.205 16.3851 249.205 13.7744C249.205 11.1637 247.089 9.04736 244.478 9.04736C241.867 9.04736 239.751 11.1637 239.751 13.7744C239.751 16.3851 241.867 18.5015 244.478 18.5015Z" fill="#5CC9FF" stroke="#141414" stroke-linecap="round"/>
<path d="M860.863 206.477C892.77 206.477 918.637 180.611 918.637 148.703C918.637 116.795 892.77 90.9292 860.863 90.9292C828.955 90.9292 803.089 116.795 803.089 148.703C803.089 180.611 828.955 206.477 860.863 206.477Z" fill="#F9DF8C" stroke="#141414"/>
<path d="M843.972 153.096C843.972 153.096 835.279 149.418 835.279 140.921C835.279 132.423 845.483 125.437 849.922 125.056C854.36 124.676 843.972 153.096 843.972 153.096V153.096Z" fill="#141414" stroke="#141414" stroke-linecap="round"/>
<path d="M860.863 206.477C870.092 206.484 879.188 204.269 887.381 200.02C885.017 174.656 878.342 126.417 865.371 126.555C848.573 126.751 846.682 135.052 846.682 135.052C846.682 135.052 825.134 182.265 853.127 183.556C851.87 190.958 850.694 198.706 849.668 205.37C853.355 206.104 857.104 206.475 860.863 206.477V206.477Z" fill="#81D9FC" stroke="#141414" stroke-linecap="round"/>
<path d="M867.481 117.02C867.481 117.02 849.726 117.493 842.554 126.555C835.383 135.617 847.27 155.828 867.665 156.012C871.251 157.903 868.046 171.116 869.971 171.116C871.897 171.116 872.992 153.557 876.013 154.122C879.033 154.687 881.777 159.817 881.777 159.817C881.777 159.817 890.701 117.02 867.481 117.02V117.02Z" fill="#DB2323" stroke="#141414" stroke-linecap="round"/>
<path d="M890.736 125.045C895.288 125.045 898.979 121.354 898.979 116.801C898.979 112.248 895.288 108.558 890.736 108.558C886.183 108.558 882.492 112.248 882.492 116.801C882.492 121.354 886.183 125.045 890.736 125.045Z" fill="#DB2323" stroke="#141414" stroke-linecap="round"/>
<path d="M853.127 183.556C853.127 183.556 864.01 184.594 870.421 180.443C870.421 185.159 861.658 192.399 851.559 193.206C852.423 187.73 853.127 183.556 853.127 183.556Z" fill="#141414" stroke="#141414" stroke-linecap="round"/>
<path d="M860.287 271.733V369.641H663.364" stroke="#141414"/>
<path d="M163.748 243.44H137.312V519.316H163.748" stroke="#141414" stroke-linecap="round"/>
<path d="M663.929 380.144C669.876 380.144 674.697 375.323 674.697 369.376C674.697 363.429 669.876 358.607 663.929 358.607C657.981 358.607 653.16 363.429 653.16 369.376C653.16 375.323 657.981 380.144 663.929 380.144Z" fill="white" stroke="#141414"/>
<path d="M749.592 98.6771H785.091" stroke="white"/>
<path d="M923.179 120.583H946.214" stroke="white"/>
<path d="M728.193 120.583H785.091" stroke="white"/>
<path d="M728.193 142.489H785.091" stroke="white"/>
<path d="M728.193 164.383H785.091" stroke="white"/>
<path d="M728.193 186.289H785.091" stroke="white"/>
<path d="M728.193 208.195H785.091" stroke="white"/>
<path fill-rule="evenodd" clip-rule="evenodd" d="M934.697 105.595C941.058 105.595 946.214 100.438 946.214 94.077C946.214 87.7158 941.058 82.5591 934.697 82.5591C928.335 82.5591 923.179 87.7158 923.179 94.077C923.179 100.438 928.335 105.595 934.697 105.595Z" stroke="white"/>
<path d="M934.697 50.9339H951.058Z" fill="#5CC9FF"/>
<path d="M934.697 50.9339H951.058" stroke="#141414" stroke-linecap="round"/>
<path d="M751.391 12.3216H767.751Z" fill="#5CC9FF"/>
<path d="M751.391 12.3216H767.751" stroke="#141414" stroke-linecap="round"/>
<path fill-rule="evenodd" clip-rule="evenodd" d="M194.602 44.0508H233.986V56.6985H194.602V44.0508Z" stroke="white"/>
<path d="M189.021 65.5068H201.173V77.6588H189.021V65.5068Z" fill="#141414" stroke="#141414" stroke-linecap="round"/>
<path d="M188.363 403.272H200.515V415.424H188.363V403.272Z" fill="#141414" stroke="#141414" stroke-linecap="round"/>
<path d="M591.754 775.061C667.381 775.061 728.689 771.67 728.689 767.486C728.689 763.303 667.381 759.912 591.754 759.912C516.127 759.912 454.819 763.303 454.819 767.486C454.819 771.67 516.127 775.061 591.754 775.061Z" fill="#141414" stroke="#141414" stroke-linecap="round"/>
<path d="M192.894 538.397C203.012 538.397 211.215 530.195 211.215 520.077C211.215 509.959 203.012 501.757 192.894 501.757C182.776 501.757 174.574 509.959 174.574 520.077C174.574 530.195 182.776 538.397 192.894 538.397Z" fill="white" stroke="#141414" stroke-linecap="round"/>
<path d="M221.522 508.916H272.125" stroke="#141414" stroke-linecap="round"/>
<path d="M221.522 519.316H318.37" stroke="#141414" stroke-linecap="round"/>
<path d="M221.522 529.715H318.37" stroke="#141414" stroke-linecap="round"/>
<path d="M538.732 76.1485C538.732 76.1485 531.537 71.6174 532.783 64.2501C534.028 56.8828 536.668 73.3122 539.7 70.1993C542.732 67.0863 544.393 79.1692 538.732 76.1485Z" fill="white"/>
<path d="M442.68 188.872C442.68 188.872 457.219 169.606 466.281 170.171C475.343 170.736 451.927 182.265 457.784 186.139C463.641 190.013 433.042 203.456 442.68 188.872Z" fill="white"/>
<path d="M470.224 167.334C470.224 167.334 472.841 160.175 475.677 161.869C478.513 163.564 471.192 171.473 470.224 167.334Z" fill="white"/>
<path d="M422.803 107.681C422.803 107.681 431.508 93.0388 433.318 95.9673C435.128 98.8958 429.479 104.926 433.318 105.825C437.157 106.724 419.413 117.308 422.803 107.681Z" fill="white"/>
<path d="M545.914 243.625C545.914 243.625 564.038 235.692 566.125 243.625C568.212 251.557 568.57 241.319 572.536 246.461C576.502 251.603 529.3 254.393 545.914 243.625V243.625Z" fill="white"/>
<path d="M575.602 244.755C575.602 244.755 573.296 238.909 579.338 239.29C585.379 239.67 585.091 245.896 575.602 244.755Z" fill="white"/>
<path d="M591.675 242.08C591.675 242.08 621.063 239.094 628.811 217.188C636.559 195.282 619.818 183.21 619.818 183.21" stroke="white" stroke-width="1.31" stroke-linecap="round"/>
<path d="M481.88 160.175C481.88 160.175 499.82 145.187 518.324 138.269" stroke="white" stroke-width="1.31" stroke-linecap="round"/>
<path d="M444.894 97.3164C444.894 97.3164 468.125 83.3197 486.399 85.9599" stroke="white" stroke-width="1.31" stroke-linecap="round"/>
<path d="M560.453 59.6732C561.793 59.6364 563.075 59.1164 564.062 58.209" stroke="white" stroke-width="1.31" stroke-linecap="round"/>
<path d="M534.915 58.2088C534.915 58.2088 537.002 49.8961 545.488 54.0582C548.462 55.4994 551.125 56.8829 553.558 57.909" stroke="white" stroke-width="1.31" stroke-linecap="round"/>
<path d="M526.845 202.983C522.614 216.496 516.123 231.277 506.23 243.244" stroke="white" stroke-width="1.31" stroke-linecap="round"/>
<path d="M531.272 186.139C530.695 188.872 530.015 191.789 529.22 194.821" stroke="white" stroke-width="1.31" stroke-linecap="round"/>
<path d="M468.344 286.56C466.626 283.899 466.259 280.586 467.353 277.613C469.255 272.702 475.861 270.627 475.112 274.408C474.362 278.19 471.33 283.724 474.547 284.254C477.764 284.785 473.682 290.78 468.344 286.56Z" fill="white"/>
<path d="M478.514 276.288C478.514 276.288 477.937 271.457 483.045 272.46C488.152 273.463 479.828 279.504 478.514 276.288Z" fill="white"/>
<path d="M456.515 512.571C456.515 512.571 446.45 484.901 456.515 471.78C466.581 458.66 468.667 533.716 456.515 512.571Z" fill="white"/>
<path d="M458.475 461.554C458.475 461.554 454.866 453.149 458.475 446.565C462.084 439.982 471.03 455.489 458.475 461.554Z" fill="white"/>
<path d="M463.594 558.689C466.026 571.47 469.124 584.116 472.875 596.575" stroke="white" stroke-width="1.31" stroke-linecap="round"/>
<path d="M460.919 542.375C461.211 544.458 461.522 546.556 461.853 548.67" stroke="white" stroke-width="1.31" stroke-linecap="round"/>
<path d="M459.132 526.707C459.305 528.609 459.489 530.523 459.697 532.471" stroke="white" stroke-width="1.31" stroke-linecap="round"/>
<path d="M467.468 426.712C466.699 429.617 465.931 432.584 465.162 435.613" stroke="white" stroke-width="1.31" stroke-linecap="round"/>
<path d="M472.909 409.222C472.079 411.528 471.272 414.006 470.488 416.462" stroke="white" stroke-width="1.31" stroke-linecap="round"/>
<path d="M514.369 334.961C504.858 346.248 488.647 368.396 476.034 400.782" stroke="white" stroke-width="1.31" stroke-linecap="round"/>
<path d="M522.348 326.268C522.348 326.268 521.195 327.305 519.315 329.369" stroke="white" stroke-width="1.31" stroke-linecap="round"/>
<path d="M418.652 463.225C418.652 463.225 414.686 441.7 420.543 427.346C426.4 412.992 418.652 441.516 425.455 440.755C432.257 439.994 421.489 477.948 418.652 463.225Z" fill="white"/>
<path d="M424.129 416.451C424.129 416.451 424.59 408.081 427.668 404.115C430.747 400.148 425.824 422.769 424.129 416.451Z" fill="white"/>
<path d="M436.5 375.579C441.7 363.15 450.012 344.819 456.872 336.713" stroke="white" stroke-width="1.31" stroke-linecap="round"/>
<path d="M431.496 388.077C431.496 388.077 432.211 386.186 433.433 383.096" stroke="white" stroke-width="1.31" stroke-linecap="round"/>
<path d="M843.154 98.677C843.154 98.677 814.791 113.227 815.552 131.893C816.313 150.559 831.036 106.92 847.835 105.595C864.633 104.269 854.095 91.5864 843.154 98.677Z" fill="white"/>
<path d="M814.042 141.048C810.28 142.367 807.931 146.114 808.381 150.075C808.946 157.143 823.485 143.273 814.042 141.048V141.048Z" fill="white"/>
<path d="M469.209 126.855L544.404 101.444" stroke="white" stroke-width="1.31" stroke-linecap="round"/>
<path d="M453.748 132.078L460.308 129.864" stroke="white" stroke-width="1.31" stroke-linecap="round"/>
<path d="M611.966 77.636L649.39 64.9883" stroke="white" stroke-width="1.31" stroke-linecap="round"/>
<path d="M596.517 82.8587L603.065 80.645" stroke="white" stroke-width="1.31" stroke-linecap="round"/>
<path d="M435.243 138.327L443.256 135.618" stroke="white" stroke-width="1.31" stroke-linecap="round"/>
<path d="M339.468 170.16C339.468 170.16 321.021 176.812 323.615 181.758C326.209 186.704 347.908 172.385 339.468 170.16Z" fill="white"/>
<path d="M344.771 167.254C344.771 167.254 348.173 159.552 350.744 163.3C353.315 167.047 348.046 169.721 344.771 167.254Z" fill="white"/>
<path d="M672.991 52.2252C672.991 52.2252 687.529 44.4313 692.256 48.7664C696.983 53.1015 678.848 53.2744 682.618 58.1859C686.388 63.0975 666.915 54.9462 672.991 52.2252Z" fill="white"/>
<path d="M696.592 45.3654C696.592 45.3654 701.319 41.5952 704.905 43.2901C708.49 44.9849 692.868 51.0263 696.592 45.3654Z" fill="white"/>
<path d="M564.062 123.662C564.062 123.662 558.805 139.457 575.142 154.065" stroke="white"/>
<path d="M559.265 90.3647C559.265 91.1257 559.139 97.6744 557.755 100.741C556.371 103.808 561.087 102.067 563.105 101.433" stroke="#141414"/>
<path d="M665.82 541.776C665.82 541.776 674.952 540.623 674.629 531.007" stroke="white"/>
<path d="M671.654 546.307C671.654 546.307 680.786 545.154 680.463 535.55" stroke="white"/>
<path d="M677.488 550.85C677.488 550.85 686.608 549.697 686.297 540.081" stroke="white"/>
<path d="M575.948 693.007C575.948 693.007 581.586 700.282 589.703 695.094" stroke="white"/>
<path d="M575.026 700.34C575.026 700.34 580.664 707.603 588.781 702.415" stroke="white"/>
<path d="M574.115 707.672C574.115 707.672 579.753 714.936 587.87 709.748" stroke="white"/>
<path d="M561.732 106.956C561.342 107.055 561.024 107.336 560.876 107.71C560.727 108.084 560.767 108.507 560.983 108.847C562.279 110.932 564.781 111.933 567.159 111.318C569.536 110.702 571.238 108.613 571.359 106.16C571.379 105.761 571.208 105.377 570.899 105.124C570.589 104.871 570.178 104.781 569.791 104.88L561.732 106.956Z" fill="white" stroke="#141414"/>
<path d="M566.73 89.7025C569.427 89.3551 571.507 88.2493 571.376 87.2325C571.245 86.2158 568.952 85.6731 566.256 86.0205C563.559 86.3678 561.479 87.4737 561.61 88.4904C561.741 89.5072 564.033 90.0499 566.73 89.7025Z" fill="white" stroke="#141414"/>
<path d="M564.534 86.3408C562.736 86.8366 561.514 87.6667 561.617 88.4507C561.721 89.2347 563.105 89.7305 564.973 89.7651C565.953 89.3615 566.598 88.6121 566.494 87.8281C566.391 87.0441 565.584 86.4676 564.534 86.3408V86.3408Z" fill="#141414"/>
<path d="M550.813 92.2347C553.51 91.8874 555.59 90.7815 555.459 89.7648C555.328 88.748 553.035 88.2053 550.339 88.5527C547.642 88.9 545.562 90.0059 545.693 91.0227C545.824 92.0394 548.116 92.5821 550.813 92.2347Z" fill="white" stroke="#141414" stroke-width="1.31"/>
<path d="M548.612 88.8887C546.813 89.3844 545.591 90.2146 545.695 90.9986C545.798 91.7826 547.182 92.2783 549.05 92.3014C550.03 91.9094 550.675 91.1484 550.572 90.3644C550.32 89.4908 549.521 88.8891 548.612 88.8887V88.8887Z" fill="#141414"/>
</svg>
