<svg width="143" height="144" viewBox="0 0 143 144" fill="none" xmlns="http://www.w3.org/2000/svg">
<rect y="0.5" width="143" height="143" rx="71.5" fill="#FF8EDF"/>
<path d="M91.64 39.5901H32.43C29.0666 39.5901 26.34 42.3167 26.34 45.6801V87.1301C26.34 90.4935 29.0666 93.2201 32.43 93.2201H91.64C95.0034 93.2201 97.73 90.4935 97.73 87.1301V45.6801C97.73 42.3167 95.0034 39.5901 91.64 39.5901Z" fill="#5B89FF" stroke="#252626" stroke-width="2" stroke-linecap="round" stroke-linejoin="round"/>
<path d="M92.13 45.6401H31.96V83.7901H92.13V45.6401Z" fill="white" stroke="#252626" stroke-width="2" stroke-linecap="round" stroke-linejoin="round"/>
<path d="M67.88 50.9001H37.49V54.8801H67.88V50.9001Z" fill="#FF8A00" stroke="#252626" stroke-width="2" stroke-linecap="round" stroke-linejoin="round"/>
<path d="M37.49 60.3401H62.04" stroke="#252626" stroke-width="2" stroke-linecap="round" stroke-linejoin="round"/>
<path d="M37.49 64.7202H62.04" stroke="#252626" stroke-width="2" stroke-linecap="round" stroke-linejoin="round"/>
<path d="M37.49 69.0901H62.04" stroke="#252626" stroke-width="2" stroke-linecap="round" stroke-linejoin="round"/>
<path d="M57.92 78.3501L71.57 69.9301L68.53 64.7201L80.49 57.6301" stroke="#252626" stroke-width="2" stroke-linecap="round" stroke-linejoin="round"/>
<path d="M75.5699 55.4702L82.2499 56.4402L80.4899 62.9102" stroke="#252626" stroke-width="2" stroke-linecap="round" stroke-linejoin="round"/>
<path d="M108.566 70.1694L103.453 73.0537L111.6 87.4942L116.713 84.6099L108.566 70.1694Z" fill="#FF8A00" stroke="#252626" stroke-width="2" stroke-linecap="round" stroke-linejoin="round"/>
<path d="M104.504 65.4382L101.316 67.2366L104.318 72.5581L107.506 70.7597L104.504 65.4382Z" stroke="#252626" stroke-width="2" stroke-linecap="round" stroke-linejoin="round"/>
<path d="M109.4 45.9201C110.914 48.6036 111.599 51.6758 111.367 54.7482C111.135 57.8207 109.998 60.7555 108.098 63.1815C106.198 65.6075 103.622 67.4158 100.695 68.3777C97.7678 69.3396 94.621 69.412 91.6527 68.5857C88.6844 67.7594 86.0277 66.0714 84.0186 63.7354C82.0095 61.3993 80.7382 58.5199 80.3654 55.4613C79.9927 52.4028 80.5352 49.3023 81.9243 46.5521C83.3135 43.8018 85.487 41.5252 88.17 40.0101C91.7694 37.9805 96.0273 37.4629 100.008 38.5711C103.989 39.6793 107.367 42.3226 109.4 45.9201Z" fill="white" stroke="#252626" stroke-width="2" stroke-linecap="round" stroke-linejoin="round"/>
<path d="M105.85 47.92C106.968 49.9006 107.474 52.1683 107.303 54.4362C107.132 56.7042 106.293 58.8706 104.891 60.6616C103.489 62.4526 101.588 63.7876 99.4273 64.498C97.2667 65.2084 94.9439 65.2621 92.7528 64.6524C90.5617 64.0428 88.6005 62.7971 87.1173 61.0729C85.6341 59.3487 84.6955 57.2234 84.4201 54.9657C84.1447 52.7081 84.5449 50.4195 85.5702 48.3893C86.5954 46.3591 88.1996 44.6785 90.18 43.56C92.8366 42.0626 95.979 41.6807 98.917 42.4982C101.855 43.3156 104.349 45.2657 105.85 47.92Z" fill="#5B89FF" stroke="#252626" stroke-width="2" stroke-linecap="round" stroke-linejoin="round"/>
<path d="M89.86 55.8402C89.02 53.5702 89.22 50.4202 91.53 48.6602Z" fill="#5B89FF"/>
<path d="M89.86 55.8402C89.02 53.5702 89.22 50.4202 91.53 48.6602" stroke="#252626" stroke-width="2" stroke-linecap="round" stroke-linejoin="round"/>
<path d="M67.0101 93.2202H57.05V101H67.0101V93.2202Z" fill="#5B89FF" stroke="#252626" stroke-width="2" stroke-linecap="round" stroke-linejoin="round"/>
<path d="M95.45 105.54H28.27C27.668 105.54 27.0906 105.301 26.6649 104.875C26.2392 104.449 26 103.872 26 103.27C26 102.668 26.2392 102.091 26.6649 101.665C27.0906 101.239 27.668 101 28.27 101H95.45C95.7485 100.999 96.0443 101.057 96.3203 101.17C96.5963 101.284 96.847 101.451 97.0581 101.662C97.2691 101.873 97.4363 102.124 97.5499 102.4C97.6635 102.676 97.7213 102.972 97.72 103.27C97.72 103.568 97.6613 103.863 97.5472 104.139C97.4331 104.414 97.2659 104.664 97.0551 104.875C96.8443 105.086 96.5941 105.253 96.3187 105.367C96.0433 105.481 95.7481 105.54 95.45 105.54Z" fill="#5B89FF" stroke="#252626" stroke-width="2" stroke-linecap="round" stroke-linejoin="round"/>
</svg>
