<svg width="143" height="143" viewBox="0 0 143 143" fill="none" xmlns="http://www.w3.org/2000/svg">
<rect width="143" height="143" rx="71.5" fill="#FF8EDF"/>
<path d="M45.75 96.5H31.1V104.15H45.75V96.5Z" fill="#FF8A00" stroke="#252626" stroke-width="2" stroke-linecap="round" stroke-linejoin="round"/>
<path d="M110.56 96.5H95.9099V104.15H110.56V96.5Z" fill="#FF8A00" stroke="#252626" stroke-width="2" stroke-linecap="round" stroke-linejoin="round"/>
<path d="M116.54 39H25V96.5H116.54V39Z" fill="#FF8A00" stroke="#252626" stroke-width="2" stroke-linecap="round" stroke-linejoin="round"/>
<path d="M111.94 44.1399H29.6V91.3599H111.94V44.1399Z" fill="white" stroke="#252626" stroke-width="2" stroke-linecap="round" stroke-linejoin="round"/>
<path d="M44.32 74.2498C48.5063 74.2498 51.9 70.8562 51.9 66.6698C51.9 62.4835 48.5063 59.0898 44.32 59.0898C40.1337 59.0898 36.74 62.4835 36.74 66.6698C36.74 70.8562 40.1337 74.2498 44.32 74.2498Z" fill="#5B89FF" stroke="#252626" stroke-width="2" stroke-linecap="round" stroke-linejoin="round"/>
<path d="M55.4099 67.75L69.3699 55.78" stroke="#252626" stroke-width="2" stroke-linecap="round" stroke-linejoin="round"/>
<path d="M80.2799 52.25C80.2799 53.0411 80.0453 53.8145 79.6058 54.4723C79.1662 55.1301 78.5415 55.6428 77.8106 55.9455C77.0797 56.2483 76.2755 56.3275 75.4995 56.1731C74.7236 56.0188 74.0109 55.6378 73.4515 55.0784C72.8921 54.519 72.5111 53.8063 72.3568 53.0303C72.2024 52.2544 72.2816 51.4502 72.5844 50.7193C72.8871 49.9883 73.3998 49.3636 74.0576 48.9241C74.7154 48.4846 75.4888 48.25 76.2799 48.25C77.3408 48.25 78.3582 48.6714 79.1083 49.4216C79.8585 50.1717 80.2799 51.1891 80.2799 52.25Z" fill="#5B89FF" stroke="#252626" stroke-width="2" stroke-linecap="round" stroke-linejoin="round"/>
<path d="M55.4099 67.75L69.3699 79.72" stroke="#252626" stroke-width="2" stroke-linecap="round" stroke-linejoin="round"/>
<path d="M80.2799 83.25C80.2799 82.4589 80.0453 81.6855 79.6058 81.0277C79.1662 80.3699 78.5415 79.8572 77.8106 79.5545C77.0797 79.2517 76.2755 79.1725 75.4995 79.3269C74.7236 79.4812 74.0109 79.8622 73.4515 80.4216C72.8921 80.981 72.5111 81.6937 72.3568 82.4696C72.2024 83.2456 72.2816 84.0498 72.5844 84.7807C72.8871 85.5116 73.3998 86.1363 74.0576 86.5759C74.7154 87.0154 75.4888 87.25 76.2799 87.25C77.3408 87.25 78.3582 86.8286 79.1083 86.0784C79.8585 85.3283 80.2799 84.3109 80.2799 83.25Z" fill="#5B89FF" stroke="#252626" stroke-width="2" stroke-linecap="round" stroke-linejoin="round"/>
<path d="M82.2799 67.76C82.2799 68.5511 82.0453 69.3245 81.6058 69.9823C81.1662 70.6401 80.5415 71.1528 79.8106 71.4555C79.0797 71.7583 78.2755 71.8375 77.4995 71.6832C76.7236 71.5288 76.0109 71.1478 75.4515 70.5884C74.8921 70.029 74.5111 69.3163 74.3568 68.5404C74.2024 67.7645 74.2816 66.9602 74.5844 66.2293C74.8871 65.4984 75.3998 64.8737 76.0576 64.4341C76.7154 63.9946 77.4888 63.76 78.2799 63.76C79.3408 63.76 80.3582 64.1814 81.1083 64.9316C81.8585 65.6817 82.2799 66.6991 82.2799 67.76Z" fill="#5B89FF" stroke="#252626" stroke-width="2" stroke-linecap="round" stroke-linejoin="round"/>
<path d="M55.4099 67.75H70.7699" stroke="#252626" stroke-width="2" stroke-linecap="round" stroke-linejoin="round"/>
<path d="M87.25 67.75H98.5" stroke="#252626" stroke-width="2" stroke-linecap="round" stroke-linejoin="round"/>
<path d="M101.13 67.2799C100.901 67.5083 100.72 67.7796 100.596 68.0781C100.473 68.3767 100.409 68.6967 100.409 69.0199C100.409 69.343 100.473 69.663 100.596 69.9616C100.72 70.2602 100.901 70.5314 101.13 70.7599L111.37 81.2499L114.89 77.8099L104.65 67.3199C104.424 67.0826 104.152 66.893 103.851 66.7623C103.55 66.6315 103.226 66.5622 102.898 66.5585C102.57 66.5548 102.245 66.6167 101.941 66.7406C101.638 66.8644 101.362 67.0478 101.13 67.2799Z" fill="white" stroke="#252626" stroke-width="2" stroke-linecap="round" stroke-linejoin="round"/>
<path d="M114.85 77.8099C115.194 78.154 115.428 78.5923 115.523 79.0695C115.618 79.5466 115.569 80.0412 115.382 80.4906C115.196 80.94 114.881 81.3241 114.476 81.5944C114.072 81.8646 113.596 82.0089 113.11 82.0089C112.623 82.0089 112.148 81.8646 111.743 81.5944C111.339 81.3241 111.024 80.94 110.837 80.4906C110.651 80.0412 110.602 79.5466 110.697 79.0695C110.792 78.5923 111.026 78.154 111.37 77.8099C111.598 77.5813 111.87 77.4 112.168 77.2763C112.467 77.1525 112.787 77.0889 113.11 77.0889C113.433 77.0889 113.753 77.1525 114.052 77.2763C114.35 77.4 114.621 77.5813 114.85 77.8099Z" fill="white" stroke="#252626" stroke-width="2" stroke-linecap="round" stroke-linejoin="round"/>
</svg>
