<svg width="143" height="143" viewBox="0 0 143 143" fill="none" xmlns="http://www.w3.org/2000/svg">
<rect width="143" height="143" rx="71.5" fill="#FF8EDF"/>
<path d="M91.13 46.98H24V109.4H91.13V46.98Z" stroke="white" stroke-width="1.93" stroke-linecap="round" stroke-linejoin="round"/>
<path d="M91.13 46.98H24V63.47H91.13V46.98Z" fill="#FF8A00" stroke="white" stroke-width="1.93" stroke-linecap="round" stroke-linejoin="round"/>
<path d="M24 63.51H91.13" stroke="white" stroke-width="1.93" stroke-linecap="round" stroke-linejoin="round"/>
<path d="M24 78.76H91.13" stroke="white" stroke-width="1.93" stroke-linecap="round" stroke-linejoin="round"/>
<path d="M24 94.6501H91.13" stroke="white" stroke-width="1.93" stroke-linecap="round" stroke-linejoin="round"/>
<path d="M74.11 63.51V109.4" stroke="white" stroke-width="1.93" stroke-linecap="round" stroke-linejoin="round"/>
<path d="M57.08 63.51V109.4" stroke="white" stroke-width="1.93" stroke-linecap="round" stroke-linejoin="round"/>
<path d="M40.0599 63.51V109.4" stroke="white" stroke-width="1.93" stroke-linecap="round" stroke-linejoin="round"/>
<path d="M37.34 50.8901V43.0701" stroke="white" stroke-width="1.93" stroke-linecap="round" stroke-linejoin="round"/>
<path d="M50.86 50.8901V43.0701" stroke="white" stroke-width="1.93" stroke-linecap="round" stroke-linejoin="round"/>
<path d="M64.2 50.8901V43.0701" stroke="white" stroke-width="1.93" stroke-linecap="round" stroke-linejoin="round"/>
<path d="M77.35 50.8901V43.0701" stroke="white" stroke-width="1.93" stroke-linecap="round" stroke-linejoin="round"/>
<path d="M102.52 33.0001C99.9256 32.9932 97.3684 33.6174 95.0688 34.8188C92.7693 36.0203 90.7964 37.7629 89.3202 39.8964C87.844 42.03 86.9088 44.4906 86.5952 47.066C86.2816 49.6415 86.599 52.2546 87.5201 54.6801L86.5201 69.6201L98.9401 64.6701C100.12 64.9474 101.328 65.0884 102.54 65.0901C106.793 65.0901 110.871 63.4007 113.879 60.3935C116.886 57.3864 118.575 53.3078 118.575 49.0551C118.575 44.8023 116.886 40.7238 113.879 37.7166C110.871 34.7095 106.793 33.0201 102.54 33.0201L102.52 33.0001Z" fill="white" stroke="white" stroke-width="1.93" stroke-linecap="round" stroke-linejoin="round"/>
<path d="M97.19 50.76H93.78V58.71H97.19V50.76Z" fill="#5B89FF" stroke="#414141" stroke-width="1.93" stroke-linecap="round" stroke-linejoin="round"/>
<path d="M98.42 45.8101H95.1801V51.63H98.42V45.8101Z" fill="#5B89FF" stroke="#414141" stroke-width="1.93" stroke-linecap="round" stroke-linejoin="round"/>
<path d="M98.42 45.8101V48.7301V51.6401L109.92 56.6201V48.7301V40.8301L98.42 45.8101Z" fill="#5B89FF" stroke="#414141" stroke-width="1.93" stroke-linecap="round" stroke-linejoin="round"/>
<path d="M95.21 45.8101C91.57 45.8101 91.38 51.64 95.21 51.64V45.8101Z" fill="#5B89FF" stroke="#414141" stroke-width="1.93" stroke-linecap="round" stroke-linejoin="round"/>
<path d="M48.69 84.37C48.69 84.9475 48.5187 85.512 48.1979 85.9922C47.877 86.4724 47.421 86.8467 46.8874 87.0677C46.3538 87.2887 45.7667 87.3465 45.2003 87.2339C44.6339 87.1212 44.1136 86.8431 43.7052 86.4347C43.2968 86.0263 43.0188 85.506 42.9061 84.9396C42.7934 84.3732 42.8512 83.7861 43.0723 83.2525C43.2933 82.719 43.6675 82.2629 44.1477 81.9421C44.6279 81.6212 45.1925 81.45 45.77 81.45C46.1538 81.4486 46.5341 81.5233 46.889 81.6695C47.2438 81.8158 47.5663 82.0309 47.8377 82.3023C48.1091 82.5737 48.3241 82.8961 48.4704 83.251C48.6167 83.6058 48.6913 83.9862 48.69 84.37Z" fill="#FF8A00" stroke="white" stroke-width="1.93" stroke-linecap="round" stroke-linejoin="round"/>
<path d="M65.49 100.26C65.49 100.838 65.3185 101.403 64.9972 101.883C64.6759 102.364 64.2193 102.738 63.6851 102.959C63.151 103.179 62.5634 103.237 61.9967 103.123C61.43 103.01 60.9097 102.731 60.5017 102.321C60.0938 101.912 59.8165 101.391 59.7049 100.824C59.5934 100.257 59.6526 99.6691 59.8752 99.1357C60.0977 98.6023 60.4735 98.147 60.955 97.8273C61.4365 97.5077 62.0021 97.3381 62.58 97.3401C62.963 97.3401 63.3422 97.4157 63.6959 97.5625C64.0497 97.7094 64.3709 97.9247 64.6412 98.1959C64.9116 98.4672 65.1257 98.7892 65.2714 99.1434C65.417 99.4976 65.4913 99.8771 65.49 100.26Z" fill="#FF8A00" stroke="white" stroke-width="1.93" stroke-linecap="round" stroke-linejoin="round"/>
<path d="M82.6399 69.6C82.6419 70.1783 82.4721 70.7443 82.152 71.226C81.8319 71.7077 81.3759 72.0835 80.842 72.3058C80.308 72.528 79.7201 72.5867 79.1527 72.4743C78.5854 72.362 78.0641 72.0837 77.6552 71.6747C77.2462 71.2657 76.9679 70.7445 76.8555 70.1772C76.7432 69.6098 76.8019 69.0219 77.0241 68.4879C77.2464 67.9539 77.6222 67.498 78.1039 67.1779C78.5856 66.8578 79.1515 66.688 79.7299 66.69C80.5017 66.69 81.2419 66.9966 81.7876 67.5423C82.3333 68.088 82.6399 68.8282 82.6399 69.6Z" fill="#FF8A00" stroke="white" stroke-width="1.93" stroke-linecap="round" stroke-linejoin="round"/>
</svg>
